<svg width="30" height="30" viewBox="0 0 30 30" fill="none" xmlns="http://www.w3.org/2000/svg">
<path d="M3.33333 3.33334L3.33333 26.6667L26.6667 26.6667L26.6667 3.33333L3.33333 3.33334ZM3.33333 30C2.44928 30 1.60143 29.6488 0.976312 29.0237C0.351191 28.3986 5.01133e-07 27.5507 4.23846e-07 26.6667L-1.61602e-06 3.33334C-1.6933e-06 2.44928 0.351188 1.60144 0.97631 0.976315C1.60143 0.351193 2.44928 3.12382e-06 3.33333 3.04653e-06L26.6667 1.00666e-06C27.5507 9.29378e-07 28.3986 0.351191 29.0237 0.976312C29.6488 1.60143 30 2.44928 30 3.33333L30 26.6667C30 27.5507 29.6488 28.3986 29.0237 29.0237C28.3986 29.6488 27.5507 30 26.6667 30L3.33333 30ZM6.66667 16.6667L6.66667 13.3333L23.3333 13.3333L23.3333 16.6667L6.66667 16.6667Z" fill="#6A2C70"/>
</svg>
