<svg width="27" height="28" viewBox="0 0 27 28" fill="none" xmlns="http://www.w3.org/2000/svg">
<path d="M17.3471 16.3333H16.5079L16.2104 16.0183C16.8743 15.1713 17.3595 14.1735 17.6313 13.0965C17.9031 12.0195 17.9548 10.8898 17.7827 9.7883C17.2834 6.54497 14.8188 3.95497 11.8443 3.5583C10.7986 3.41301 9.73646 3.53237 8.7392 3.90724C7.74194 4.28211 6.83598 4.90256 6.09065 5.72111C5.34531 6.53966 4.78036 7.53461 4.43902 8.62983C4.09768 9.72506 3.989 10.8915 4.1213 12.04C4.48248 15.3066 6.84082 18.0133 9.79406 18.5616C10.797 18.7507 11.8257 18.6939 12.8064 18.3954C13.7871 18.0969 14.6955 17.5641 15.4668 16.835L15.7536 17.1616V18.0833L20.2685 23.0416C20.704 23.52 21.4158 23.52 21.8513 23.0416C22.2869 22.5633 22.2869 21.7816 21.8513 21.3033L17.3471 16.3333ZM10.9732 16.3333C8.32806 16.3333 6.19281 13.9883 6.19281 11.0833C6.19281 8.1783 8.32806 5.8333 10.9732 5.8333C13.6184 5.8333 15.7536 8.1783 15.7536 11.0833C15.7536 13.9883 13.6184 16.3333 10.9732 16.3333Z" fill="white"/>
</svg>
